<svg xmlns="http://www.w3.org/2000/svg" viewBox="0 -0.5 32 32" shape-rendering="crispEdges">
<metadata>Made with Pixels to Svg https://codepen.io/shshaw/pen/XbxvNj</metadata>
<path stroke="#000000" d="M2 0h5M12 0h5M0 1h2M7 1h2M10 1h2M16 1h4M0 2h1M9 2h1M16 2h1M19 2h1M0 3h1M16 3h1M26 3h1M0 4h1M16 4h1M19 4h1M27 4h1M0 5h1M16 5h1M19 5h1M28 5h1M0 6h1M16 6h1M19 6h1M28 6h1M0 7h1M16 7h1M19 7h1M28 7h1M0 8h1M16 8h1M19 8h1M28 8h1M0 9h1M16 9h1M19 9h1M31 9h1M0 10h1M16 10h1M19 10h1M30 10h1M0 11h1M16 11h1M19 11h1M29 11h1M0 12h1M16 12h1M19 12h1M28 12h1M0 13h1M2 13h5M12 13h8M27 13h1M0 14h1M7 14h2M10 14h2M18 14h1M0 15h1M9 15h1M14 15h5M24 15h5M0 16h14M19 16h2M22 16h2M28 16h4M12 17h1M21 17h1M28 17h1M31 17h1M12 18h1M28 18h1M31 18h1M12 19h1M28 19h1M31 19h1M12 20h1M28 20h1M31 20h1M12 21h1M28 21h1M31 21h1M12 22h1M28 22h1M31 22h1M5 23h1M12 23h1M28 23h1M31 23h1M5 24h1M12 24h1M28 24h1M31 24h1M5 25h1M12 25h1M28 25h1M31 25h1M5 26h1M12 26h1M28 26h1M31 26h1M6 27h1M12 27h1M28 27h1M31 27h1M7 28h1M14 28h5M24 28h8M12 29h1M19 29h2M22 29h2M30 29h1M12 30h1M21 30h1M30 30h1M12 31h19" />
<path stroke="#818181" d="M2 1h1M2 2h1M2 3h1M9 3h1M2 4h1M9 4h1M2 5h1M9 5h1M2 6h1M9 6h1M2 7h1M9 7h1M2 8h1M9 8h1M2 9h1M9 9h1M2 10h1M9 10h1M2 11h1M9 11h1M2 12h1M9 12h1M9 13h1M9 14h1M8 15h1M10 15h1M14 16h1M14 17h1M14 18h1M21 18h1M14 19h1M21 19h1M14 20h1M21 20h1M14 21h1M21 21h1M14 22h1M21 22h1M14 23h1M21 23h1M14 24h1M21 24h1M14 25h1M21 25h1M14 26h1M21 26h1M14 27h1M21 27h1M21 28h1M21 29h1M20 30h1M22 30h1" />
<path stroke="#ffffff" d="M3 1h4M12 1h3M1 2h1M3 2h5M11 2h4M1 3h1M3 3h1M7 3h1M11 3h4M1 4h1M3 4h4M11 4h1M1 5h1M3 5h5M12 5h3M17 5h2M1 6h1M3 6h1M7 6h1M11 6h4M17 6h2M1 7h1M3 7h4M11 7h1M1 8h1M3 8h5M12 8h3M1 9h1M3 9h5M11 9h4M1 10h1M3 10h1M7 10h1M11 10h4M1 11h1M3 11h4M11 11h4M1 12h1M7 12h1M11 12h1M1 13h1M1 14h6M12 14h5M15 16h4M24 16h3M13 17h1M15 17h5M23 17h4M13 18h1M15 18h1M19 18h1M23 18h4M13 19h1M15 19h4M23 19h1M13 20h1M15 20h5M24 20h3M29 20h2M13 21h1M15 21h1M19 21h1M23 21h4M29 21h2M13 22h1M15 22h4M23 22h1M13 23h1M15 23h5M24 23h3M13 24h1M15 24h5M23 24h4M13 25h1M15 25h1M19 25h1M23 25h4M13 26h1M15 26h4M23 26h4M13 27h1M19 27h1M23 27h1M13 28h1M13 29h6M24 29h5" />
<path stroke="#c1c1c1" d="M15 1h1M8 2h1M10 2h1M15 2h1M8 3h1M10 3h1M15 3h1M10 4h1M15 4h1M8 5h1M15 5h1M8 6h1M10 6h1M15 6h1M10 7h1M15 7h1M8 8h1M15 8h1M8 9h1M10 9h1M15 9h1M8 10h1M10 10h1M15 10h1M10 11h1M15 11h1M3 12h4M8 12h1M10 12h1M12 12h4M7 13h2M10 13h2M17 14h1M1 15h7M11 15h3M27 16h1M20 17h1M22 17h1M27 17h1M20 18h1M22 18h1M27 18h1M22 19h1M27 19h1M20 20h1M27 20h1M20 21h1M22 21h1M27 21h1M22 22h1M27 22h1M20 23h1M27 23h1M20 24h1M22 24h1M27 24h1M20 25h1M22 25h1M27 25h1M22 26h1M27 26h1M15 27h4M20 27h1M22 27h1M24 27h4M19 28h2M22 28h2M29 29h1M13 30h7M23 30h7" />
<path stroke="#ff0000" d="M17 2h2M17 3h2M29 17h2M29 18h2" />
<path stroke="#0000ff" d="M20 2h6M19 3h1M24 3h2M25 4h2M26 5h2M26 6h2M26 7h2M26 8h2M23 9h8M24 10h6M25 11h4M26 12h2M4 18h1M3 19h3M2 20h5M1 21h7M0 22h9M3 23h2M3 24h2M3 25h2M3 26h2M4 27h2M5 28h2M12 28h1M6 29h6" />
<path stroke="#000081" d="M4 3h3M7 4h2M12 4h3M10 5h2M4 6h3M7 7h2M12 7h3M10 8h2M4 10h3M7 11h2M16 18h3M19 19h2M24 19h3M22 20h2M16 21h3M19 22h2M24 22h3M22 23h2M16 25h3M19 26h2" />
<path stroke="#810000" d="M17 4h2M29 19h2" />
<path stroke="#818100" d="M17 7h2M29 22h2" />
<path stroke="#ffff00" d="M17 8h2M17 9h2M29 23h2M29 24h2" />
<path stroke="#008181" d="M17 10h2M29 25h2" />
<path stroke="#00ffff" d="M17 11h2M17 12h2M29 26h2M29 27h2" />
</svg>