<svg xmlns="http://www.w3.org/2000/svg" viewBox="0 -0.5 16 16" shape-rendering="crispEdges">
<metadata>Made with Pixels to Svg https://codepen.io/shshaw/pen/XbxvNj</metadata>
<path stroke="#818181" d="M1 3h13M1 4h1M1 5h1M1 6h1M13 6h1M1 7h1M13 7h1M1 8h1M13 8h1M1 9h1M13 9h1M1 10h1M13 10h1M1 11h1M13 11h1M1 12h13" />
<path stroke="#000000" d="M14 3h1M13 4h2M2 5h1M12 5h1M14 5h1M3 6h1M11 6h1M14 6h1M4 7h1M10 7h1M14 7h1M5 8h1M9 8h1M14 8h1M6 9h3M14 9h1M14 10h1M14 11h1M14 12h1M1 13h14" />
<path stroke="#ffffff" d="M2 4h2M5 4h3M9 4h3M3 5h3M7 5h3M11 5h1M5 6h3M9 6h2M5 7h1M7 7h3M2 8h2M6 8h2" />
<path stroke="#ffff00" d="M4 4h1M8 4h1M12 4h1M6 5h1M10 5h1M4 6h1M8 6h1M2 7h1M6 7h1M8 8h1M2 9h1" />
<path stroke="#818100" d="M13 5h1M12 6h1M11 7h1M4 8h1M10 8h1M3 9h1M5 9h1M9 9h1M11 9h1M2 10h1M6 10h3M12 10h1" />
<path stroke="#c1c1c1" d="M2 6h1M3 7h1M12 7h1M11 8h2M4 9h1M10 9h1M12 9h1M3 10h3M9 10h3M2 11h11" />
</svg>