<svg xmlns="http://www.w3.org/2000/svg" viewBox="0 -0.5 32 32" shape-rendering="crispEdges">
<metadata>Made with Pixels to Svg https://codepen.io/shshaw/pen/XbxvNj</metadata>
<path stroke="#810081" d="M15 5h1M14 6h1M13 7h1M12 8h1M20 8h1M11 9h1M21 9h1M10 10h1M21 10h3M9 11h1M22 11h3M8 12h1M22 12h2M7 13h1M21 13h2M25 13h1M6 14h1M20 14h3M25 14h1M5 15h1M18 15h1M20 15h2M25 15h1M4 16h3M15 16h1M17 16h1M19 16h2M25 16h1M4 17h1M7 17h2M16 17h1M18 17h2M24 17h1M4 18h1M9 18h2M13 18h1M15 18h1M17 18h2M23 18h1M4 19h1M11 19h2M14 19h1M16 19h2M22 19h1M4 20h1M15 20h2M21 20h1M5 21h2M20 21h1M7 22h2M19 22h1M9 23h2M18 23h1M11 24h2M17 24h1M14 25h1M16 25h1" />
<path stroke="#300030" d="M16 5h1M18 6h1M20 7h1M22 8h1" />
<path stroke="#ff9aff" d="M15 6h1M14 7h1M13 8h1M12 9h1M11 10h1M10 11h1M9 12h1M8 13h1M7 14h1M6 15h1" />
<path stroke="#cd00cd" d="M16 6h1M15 7h2M14 8h2M17 8h1M13 9h1M12 10h1M11 11h3M10 12h4M9 13h4M8 14h5M7 15h3M11 15h3M7 16h2M10 16h1M9 17h1" />
<path stroke="#660066" d="M17 6h1M19 7h1M21 8h1M22 9h2M20 10h1M24 10h2M15 11h3M21 11h1M25 11h1M21 12h1M24 12h1M20 13h1M23 13h1M18 14h2M14 15h4M12 17h3M5 18h1M5 19h1M13 20h2M15 21h1M13 25h1M15 26h1" />
<path stroke="#9a009a" d="M17 7h2M16 8h1M18 8h2M19 9h2M15 12h3M13 13h1M10 15h1M19 15h1M9 16h1M14 16h1M16 16h1M18 16h1M10 17h2M15 17h1M17 17h1M11 18h2M14 18h1M16 18h1M13 19h1M15 19h1" />
<path stroke="#9a3066" d="M14 9h1M18 9h1M18 12h1" />
<path stroke="#cd6666" d="M15 9h1M13 10h1M14 11h1" />
<path stroke="#cd9a30" d="M16 9h1M19 13h1M15 14h1M11 16h1M13 16h1" />
<path stroke="#9a6666" d="M17 9h1" />
<path stroke="#000000" d="M24 9h1M26 10h1M26 11h1M25 12h1M24 13h1M23 14h1M22 15h1M26 15h1M21 16h1M26 16h1M20 17h1M25 17h1M19 18h1M24 18h1M18 19h1M23 19h1M17 20h1M22 20h1M16 21h1M21 21h1M20 22h1M19 23h1M18 24h1M17 25h1M16 26h1" />
<path stroke="#ffcd00" d="M14 10h1M18 10h1M18 11h1M15 13h1M13 14h1" />
<path stroke="#ffff00" d="M15 10h3M19 11h1M19 12h1M16 13h3M14 14h1M12 16h1" />
<path stroke="#9a9a30" d="M19 10h1" />
<path stroke="#9a6630" d="M20 11h1M20 12h1M14 13h1M16 14h2" />
<path stroke="#cd009a" d="M14 12h1M13 24h1" />
<path stroke="#5f5f5f" d="M24 14h1M23 15h2M24 16h1" />
<path stroke="#666666" d="M22 16h1M21 17h1M20 18h1M19 19h1" />
<path stroke="#787878" d="M23 16h1M18 20h1" />
<path stroke="#660030" d="M5 17h1M5 20h1" />
<path stroke="#9a9a9a" d="M6 17h1M6 18h1M8 18h1M22 18h1M6 19h1M10 19h1M21 19h1M6 20h1M12 20h1M19 20h1M17 21h1M16 22h1" />
<path stroke="#878787" d="M22 17h2M21 18h1M20 19h1M14 21h1" />
<path stroke="#c1c1c1" d="M7 18h1M7 19h2M11 20h1M8 21h1M10 22h1M15 22h1M12 23h1M16 23h2M14 24h1M16 24h1" />
<path stroke="#aeab91" d="M9 19h1M20 20h1M18 21h2M17 22h2" />
<path stroke="#e8e8d7" d="M7 20h4M9 21h4M11 22h4M13 23h3M15 24h1" />
<path stroke="#d70094" d="M7 21h1M9 22h1M11 23h1M15 25h1" />
<path stroke="#b3b4b4" d="M13 21h1" />
</svg>