<svg xmlns="http://www.w3.org/2000/svg" viewBox="0 -0.5 16 16" shape-rendering="crispEdges">
<metadata>Made with Pixels to Svg https://codepen.io/shshaw/pen/XbxvNj</metadata>
<path stroke="#810081" d="M7 0h1M6 1h1M5 2h1M4 3h1M11 3h2M3 4h1M12 4h2M2 5h1M12 5h1M14 5h1M1 6h1M11 6h1M14 6h1M0 7h1M9 7h1M14 7h1M0 8h3M14 8h1M0 9h1M3 9h2M13 9h1M0 10h1M5 10h2M12 10h1M0 11h1M7 11h1M11 11h1M10 12h1M9 13h1M8 14h1" />
<path stroke="#000000" d="M8 0h1M10 1h1M12 2h1M14 3h1M14 4h2M13 5h1M12 6h1M11 7h1M15 7h1M10 8h1M15 8h1M9 9h1M14 9h1M8 10h1M13 10h1M12 11h1M11 12h1M10 13h1M9 14h1M8 15h1" />
<path stroke="#ff9aff" d="M7 1h1M6 2h1M5 3h1M4 4h1M3 5h1M2 6h1M1 7h1" />
<path stroke="#cd00cd" d="M8 1h1M7 2h3M6 3h2M5 4h2M4 5h5M3 6h4M2 7h3M3 8h2M7 8h2M5 9h3" />
<path stroke="#660066" d="M9 1h1M11 2h1M10 3h1M13 3h1M11 4h1M11 5h1M1 12h2M3 13h2M5 14h2M7 15h1" />
<path stroke="#9a009a" d="M10 2h1M8 7h1M10 7h1M5 8h2M9 8h1M8 9h1M7 10h1" />
<path stroke="#9a6630" d="M8 3h2M10 6h1M7 7h1" />
<path stroke="#ffff00" d="M7 4h3M10 5h1M7 6h2M5 7h1" />
<path stroke="#cd9a30" d="M10 4h1" />
<path stroke="#ffcd30" d="M9 5h1M9 6h1M6 7h1" />
<path stroke="#666666" d="M13 6h1M12 7h1M11 8h1M10 9h1" />
<path stroke="#9a9a9a" d="M13 7h1M12 8h1M1 9h1M11 9h1M1 10h1M10 10h1M8 11h1" />
<path stroke="#878787" d="M13 8h1M9 10h1" />
<path stroke="#c1c1c1" d="M2 9h1M3 10h1M11 10h1M5 11h2M10 11h1M8 12h2M8 13h1" />
<path stroke="#aeab91" d="M12 9h1M4 10h1M9 11h1" />
<path stroke="#e8e8d7" d="M2 10h1M3 11h2M5 12h3M7 13h1" />
<path stroke="#d70094" d="M1 11h1M3 12h1M5 13h1M7 14h1" />
<path stroke="#cd66cd" d="M2 11h1M4 12h1M6 13h1" />
</svg>