<svg xmlns="http://www.w3.org/2000/svg" viewBox="0 -0.5 16 16" shape-rendering="crispEdges">
<metadata>Made with Pixels to Svg https://codepen.io/shshaw/pen/XbxvNj</metadata>
<path stroke="#818181" d="M4 0h7M2 1h2M1 2h1M1 3h1M6 3h1M14 3h1M0 4h1M0 5h1M5 5h1M15 5h1M0 6h1M6 6h1M15 6h1M0 7h1M6 7h1M15 7h1M0 8h1M6 8h1M15 8h1M1 9h1M14 9h1M13 10h2M12 11h2M10 12h2M10 13h1M10 14h1M9 15h2" />
<path stroke="#ffffff" d="M4 1h7M2 2h4M9 2h3M2 3h4M9 3h4M1 4h12M1 5h4M9 5h5M1 6h5M9 6h5M1 7h5M9 7h5M2 8h4M9 8h4M2 9h3M10 9h2M4 10h7M6 11h3M8 12h1M8 13h1" />
<path stroke="#000000" d="M11 1h2M13 2h1M13 3h1M14 4h1M14 5h1M14 6h1M14 7h1M14 8h1M13 9h1M2 10h1M12 10h1M3 11h2M10 11h2M5 12h2M9 12h1M7 13h1M9 13h1M8 14h2" />
<path stroke="#0000ff" d="M6 2h3M7 3h2M6 5h3M7 6h2M7 7h2M7 8h2M5 9h5" />
<path stroke="#c1c1c1" d="M12 2h1M13 4h1M1 8h1M13 8h1M12 9h1M3 10h1M11 10h1M5 11h1M9 11h1M7 12h1" />
</svg>