<svg xmlns="http://www.w3.org/2000/svg" viewBox="0 -0.5 32 32" shape-rendering="crispEdges">
<metadata>Made with Pixels to Svg https://codepen.io/shshaw/pen/XbxvNj</metadata>
<path stroke="#000000" d="M9 2h5M7 3h2M14 3h2M5 4h2M16 4h2M4 5h1M18 5h1M4 6h1M18 6h1M3 7h1M19 7h1M3 8h1M19 8h1M2 9h1M20 9h1M2 10h1M20 10h1M2 11h1M20 11h1M2 12h1M20 12h1M2 13h1M20 13h1M3 14h1M19 14h1M3 15h1M19 15h1M4 16h1M18 16h3M4 17h1M18 17h1M20 17h2M5 18h2M16 18h2M21 18h2M7 19h2M14 19h3M20 19h1M23 19h1M9 20h5M17 20h1M24 20h1M18 21h1M25 21h1M19 22h1M26 22h1M20 23h1M27 23h1M21 24h1M28 24h1M22 25h1M29 25h1M23 26h1M30 26h1M24 27h1M30 27h1M25 28h1M30 28h1M26 29h1M30 29h1M27 30h3" />
<path stroke="#c1c1c1" d="M9 3h5M7 4h2M14 4h2M5 5h2M16 5h1M5 6h1M13 6h1M15 6h1M4 7h1M12 7h1M14 7h1M16 7h1M4 8h1M11 8h1M13 8h1M15 8h1M17 8h1M3 9h1M10 9h1M12 9h1M14 9h1M16 9h1M3 10h1M9 10h1M11 10h1M13 10h1M15 10h1M17 10h1M3 11h1M10 11h1M12 11h1M14 11h1M16 11h1M3 12h1M9 12h1M11 12h1M13 12h1M15 12h1M17 12h1M3 13h1M10 13h1M12 13h1M14 13h1M16 13h1M4 14h1M9 14h1M11 14h1M13 14h1M15 14h1M4 15h1M10 15h1M12 15h1M14 15h1M16 15h1M5 16h1M9 16h1M11 16h1M13 16h1M15 16h1M10 17h1M12 17h1M18 18h1M19 19h1M20 20h1" />
<path stroke="#00ffff" d="M9 4h5M7 5h3M14 5h2M6 6h1M12 6h1M14 6h1M16 6h1M5 7h1M11 7h1M13 7h1M15 7h1M17 7h1M5 8h1M10 8h1M12 8h1M14 8h1M16 8h1M18 8h1M4 9h2M9 9h1M11 9h1M13 9h1M15 9h1M17 9h2M4 10h1M8 10h1M10 10h1M12 10h1M14 10h1M16 10h1M18 10h1M4 11h2M9 11h1M11 11h1M13 11h1M15 11h1M17 11h2M4 12h1M8 12h1M10 12h1M12 12h1M14 12h1M16 12h1M18 12h1M4 13h2M9 13h1M11 13h1M13 13h1M15 13h1M17 13h2M5 14h2M8 14h1M10 14h1M12 14h1M14 14h1M16 14h2M5 15h1M7 15h1M9 15h1M11 15h1M13 15h1M15 15h1M17 15h1M6 16h1M8 16h1M10 16h1M12 16h1M14 16h1M16 16h1M7 17h3M11 17h1M13 17h3M9 18h5M21 21h1M22 22h1M23 23h1M24 24h1M25 25h1M26 26h1M27 27h1M28 28h1" />
<path stroke="#ffffff" d="M10 5h4M7 6h5M6 7h5M6 8h4M6 9h3M5 10h3M6 11h3M5 12h3M6 13h3M7 14h1M6 15h1M8 15h1M7 16h1M18 19h1M20 21h1M21 22h1M22 23h1M23 24h1M24 25h1M25 26h1M26 27h1M27 28h1" />
<path stroke="#818181" d="M17 5h1M20 14h1M5 17h1M19 17h1M19 18h2M17 19h1M18 20h2" />
<path stroke="#008181" d="M17 6h1M18 7h1M19 9h1M19 10h1M19 11h1M19 12h1M19 13h1M18 14h1M18 15h1M17 16h1M6 17h1M16 17h2M7 18h2M14 18h2M9 19h5" />
<path stroke="#0000ff" d="M21 19h1M21 20h2M19 21h1M22 21h2M20 22h1M23 22h2M21 23h1M24 23h2M22 24h1M25 24h2M23 25h1M26 25h2M24 26h1M27 26h2M25 27h1M28 27h2M26 28h1M29 28h1M27 29h2" />
<path stroke="#000081" d="M22 19h1M23 20h1M24 21h1M25 22h1M26 23h1M27 24h1M28 25h1M29 26h1M29 29h1" />
</svg>