<svg xmlns="http://www.w3.org/2000/svg" viewBox="0 -0.5 16 16" shape-rendering="crispEdges">
<metadata>Made with Pixels to Svg https://codepen.io/shshaw/pen/XbxvNj</metadata>
<path stroke="#818181" d="M5 0h5M3 1h2M2 2h1M1 3h1M1 4h1M0 5h1M7 5h2M0 6h1M6 6h1M0 7h1M5 7h1M5 8h1M5 9h1M6 10h1M11 10h2M7 11h1M10 11h1" />
<path stroke="#ffffff" d="M5 1h2M3 2h1M7 6h1M9 6h1M6 7h1M8 7h1M1 8h1M6 8h2M1 9h1M6 9h1M11 11h1" />
<path stroke="#00ff00" d="M7 1h1M5 2h1M4 3h1M3 4h1M3 9h1M4 10h1M3 11h1" />
<path stroke="#008100" d="M8 1h4M6 2h5M2 3h1M5 3h2M8 3h2M2 4h1M4 4h1M12 4h1M3 5h2M11 5h1M13 5h1M12 6h2M1 7h2M12 7h2M0 8h1M3 8h1M12 8h2M0 9h1M4 9h1M12 9h2M1 10h1M3 10h1M5 10h1M1 11h1M4 11h2M2 12h3" />
<path stroke="#c1c1c1" d="M4 2h1M3 3h1M12 5h1M11 6h1M10 7h1M2 8h1M9 8h1M2 9h1M8 9h1M10 9h1M2 10h1M7 10h1M9 10h1M2 11h1" />
<path stroke="#0000ff" d="M11 2h1M7 3h1M10 3h1M12 3h1M5 4h3M9 4h1M11 4h1M1 5h2M5 5h2M10 5h1M1 6h5M4 7h1M4 8h1M6 12h1" />
<path stroke="#000081" d="M12 2h1M11 3h1M8 4h1M10 4h1M7 12h4M3 13h7" />
<path stroke="#000000" d="M13 3h1M13 4h1M9 5h1M14 5h1M10 6h1M14 6h1M11 7h1M14 7h1M11 8h1M14 8h1M11 9h1M14 9h1M10 10h1M13 10h1M6 11h1M8 11h2M5 12h1M10 13h2M14 13h1M5 14h5M13 14h2" />
<path stroke="#00ffff" d="M8 6h1M7 7h1M9 7h1M8 8h1M10 8h1M7 9h1M9 9h1M8 10h1" />
<path stroke="#008181" d="M3 7h1" />
<path stroke="#ff0000" d="M12 11h1M13 12h1" />
<path stroke="#810000" d="M13 11h1M11 12h1M14 12h1M12 13h1" />
<path stroke="#ff00ff" d="M12 12h1M13 13h1" />
</svg>