<svg xmlns="http://www.w3.org/2000/svg" viewBox="0 -0.5 16 16" shape-rendering="crispEdges">
<metadata>Made with Pixels to Svg https://codepen.io/shshaw/pen/XbxvNj</metadata>
<path stroke="rgba(0,0,0,0.5254901960784314)" d="M0 0h1" />
<path stroke="rgba(152,152,152,0.9647058823529412)" d="M1 0h1" />
<path stroke="#d6d6d4" d="M2 0h1" />
<path stroke="rgba(173,173,170,0.7803921568627451)" d="M3 0h1" />
<path stroke="rgba(0,0,0,0.25098039215686274)" d="M4 0h1" />
<path stroke="rgba(93,93,95,0.4745098039215686)" d="M5 0h1" />
<path stroke="rgba(197,197,196,0.9764705882352941)" d="M6 0h1" />
<path stroke="#abaead" d="M7 0h1" />
<path stroke="rgba(61,0,9,0.7529411764705882)" d="M8 0h1" />
<path stroke="rgba(93,41,0,0.4392156862745098)" d="M9 0h1" />
<path stroke="rgba(0,0,219,0.16470588235294117)" d="M10 0h1" />
<path stroke="rgba(23,0,255,0.13333333333333333)" d="M11 0h1" />
<path stroke="rgba(0,0,255,0.043137254901960784)" d="M12 0h1" />
<path stroke="rgba(0,0,170,0.011764705882352941)" d="M14 0h1" />
<path stroke="#acadac" d="M0 1h1" />
<path stroke="#e3e3e3" d="M1 1h1" />
<path stroke="rgba(224,224,235,0.9882352941176471)" d="M2 1h1" />
<path stroke="#e4e4ec" d="M3 1h1" />
<path stroke="#949496" d="M4 1h1" />
<path stroke="#e2e2e0" d="M5 1h1" />
<path stroke="#ffffff" d="M6 1h1M6 5h1M12 8h1M12 12h1" />
<path stroke="rgba(209,223,226,0.9882352941176471)" d="M7 1h1" />
<path stroke="#bf0000" d="M8 1h1" />
<path stroke="#be0075" d="M9 1h1" />
<path stroke="rgba(0,38,255,0.47058823529411764)" d="M10 1h1" />
<path stroke="rgba(47,0,255,0.4470588235294118)" d="M11 1h1" />
<path stroke="rgba(0,0,248,0.9490196078431372)" d="M12 1h1" />
<path stroke="rgba(0,0,123,0.30980392156862746)" d="M13 1h1" />
<path stroke="rgba(0,0,191,0.01568627450980392)" d="M15 1h1" />
<path stroke="rgba(173,173,173,0.9803921568627451)" d="M0 2h1" />
<path stroke="#dbdbdc" d="M1 2h1" />
<path stroke="#e3e3ea" d="M2 2h1" />
<path stroke="rgba(214,214,224,0.9882352941176471)" d="M3 2h1" />
<path stroke="rgba(145,145,156,0.996078431372549)" d="M4 2h1" />
<path stroke="rgba(179,179,192,0.9882352941176471)" d="M5 2h1" />
<path stroke="rgba(214,213,226,0.996078431372549)" d="M6 2h1" />
<path stroke="rgba(181,184,191,0.996078431372549)" d="M7 2h1" />
<path stroke="#b29fa0" d="M8 2h1" />
<path stroke="rgba(179,158,176,0.9215686274509803)" d="M9 2h1" />
<path stroke="rgba(0,0,255,0.34901960784313724)" d="M12 2h1" />
<path stroke="#0000e1" d="M13 2h1" />
<path stroke="rgba(0,0,41,0.27058823529411763)" d="M14 2h1" />
<path stroke="#aaabab" d="M0 3h1" />
<path stroke="#dcdcdd" d="M1 3h1" />
<path stroke="#d8d8e2" d="M2 3h1" />
<path stroke="#cbcbd8" d="M3 3h1" />
<path stroke="#8d8d98" d="M4 3h1" />
<path stroke="#c0c0c8" d="M5 3h1" />
<path stroke="#d9d9e5" d="M6 3h1" />
<path stroke="rgba(183,182,192,0.996078431372549)" d="M7 3h1" />
<path stroke="#b3b8a5" d="M8 3h1" />
<path stroke="rgba(177,182,160,0.9450980392156862)" d="M9 3h1" />
<path stroke="rgba(0,0,0,0.0784313725490196)" d="M10 3h1M5 12h1" />
<path stroke="#0000fa" d="M13 3h1" />
<path stroke="rgba(0,0,0,0.5137254901960784)" d="M14 3h1" />
<path stroke="#a9aaaa" d="M0 4h1M7 15h1" />
<path stroke="#dededf" d="M1 4h1" />
<path stroke="#fbfbfd" d="M2 4h1" />
<path stroke="#f4f4f6" d="M3 4h1" />
<path stroke="#a0a0a4" d="M4 4h1" />
<path stroke="#aeafbc" d="M5 4h1" />
<path stroke="#f5f5f8" d="M6 4h1" />
<path stroke="rgba(201,202,218,0.996078431372549)" d="M7 4h1" />
<path stroke="#bbb400" d="M8 4h1" />
<path stroke="rgba(189,180,0,0.9529411764705882)" d="M9 4h1" />
<path stroke="rgba(0,0,0,0.01568627450980392)" d="M10 4h1M5 11h1" />
<path stroke="rgba(76,71,255,0.21176470588235294)" d="M11 4h1" />
<path stroke="rgba(0,0,255,0.6078431372549019)" d="M12 4h1" />
<path stroke="rgba(0,0,245,0.984313725490196)" d="M13 4h1" />
<path stroke="rgba(0,0,231,0.7647058823529411)" d="M14 4h1" />
<path stroke="rgba(0,0,187,0.47058823529411764)" d="M15 4h1" />
<path stroke="#aaabaa" d="M0 5h1" />
<path stroke="#dbdbdb" d="M1 5h1" />
<path stroke="#cacad8" d="M2 5h1" />
<path stroke="#c7c7d6" d="M3 5h1" />
<path stroke="#8f8f99" d="M4 5h1" />
<path stroke="#e7e7e5" d="M5 5h1" />
<path stroke="rgba(223,213,214,0.996078431372549)" d="M7 5h1" />
<path stroke="#20afa8" d="M8 5h1" />
<path stroke="rgba(63,183,177,0.9568627450980393)" d="M9 5h1" />
<path stroke="rgba(0,0,0,0.050980392156862744)" d="M10 5h1" />
<path stroke="rgba(46,162,255,0.043137254901960784)" d="M11 5h1" />
<path stroke="rgba(6,6,251,0.8156862745098039)" d="M12 5h1" />
<path stroke="#0202ff" d="M13 5h1" />
<path stroke="#0000ee" d="M14 5h1" />
<path stroke="rgba(0,0,107,0.3843137254901961)" d="M15 5h1" />
<path stroke="rgba(184,184,184,0.9803921568627451)" d="M0 6h1" />
<path stroke="rgba(180,180,180,0.9803921568627451)" d="M1 6h1" />
<path stroke="rgba(177,177,174,0.984313725490196)" d="M2 6h1" />
<path stroke="rgba(193,193,194,0.9803921568627451)" d="M3 6h1" />
<path stroke="rgba(160,160,164,0.9803921568627451)" d="M4 6h1" />
<path stroke="rgba(195,195,195,0.9803921568627451)" d="M5 6h1" />
<path stroke="#b2b5b6" d="M6 6h1" />
<path stroke="rgba(169,157,157,0.996078431372549)" d="M7 6h1" />
<path stroke="#50b0b2" d="M8 6h1" />
<path stroke="rgba(0,160,163,0.9098039215686274)" d="M9 6h1" />
<path stroke="rgba(128,0,0,0.054901960784313725)" d="M10 6h1" />
<path stroke="rgba(0,0,224,0.6352941176470588)" d="M13 6h1" />
<path stroke="rgba(55,0,0,0.27058823529411763)" d="M14 6h1" />
<path stroke="#abacac" d="M0 7h1" />
<path stroke="#e6e6e7" d="M1 7h1" />
<path stroke="#dadadc" d="M2 7h1" />
<path stroke="#bababa" d="M3 7h1" />
<path stroke="#565653" d="M4 7h1" />
<path stroke="#848484" d="M5 7h1" />
<path stroke="#c7c6c6" d="M6 7h1" />
<path stroke="rgba(184,185,185,0.9803921568627451)" d="M7 7h1" />
<path stroke="#b7adab" d="M8 7h1" />
<path stroke="rgba(0,0,0,0.5607843137254902)" d="M9 7h1" />
<path stroke="rgba(0,0,0,0.08627450980392157)" d="M11 7h1" />
<path stroke="rgba(67,69,69,0.4627450980392157)" d="M12 7h1" />
<path stroke="rgba(83,71,0,0.5176470588235295)" d="M13 7h1" />
<path stroke="rgba(0,16,0,0.24705882352941178)" d="M14 7h1" />
<path stroke="rgba(0,73,146,0.027450980392156862)" d="M15 7h1" />
<path stroke="rgba(0,0,22,0.5098039215686274)" d="M0 8h1" />
<path stroke="rgba(40,40,0,0.4745098039215686)" d="M1 8h1" />
<path stroke="rgba(42,42,0,0.4745098039215686)" d="M2 8h1" />
<path stroke="rgba(84,84,71,0.49019607843137253)" d="M3 8h1" />
<path stroke="rgba(44,44,60,0.5019607843137255)" d="M4 8h1" />
<path stroke="rgba(44,44,42,0.5254901960784314)" d="M5 8h1" />
<path stroke="rgba(125,125,125,0.9725490196078431)" d="M6 8h1" />
<path stroke="#c7c7c7" d="M7 8h1" />
<path stroke="rgba(235,236,240,0.996078431372549)" d="M8 8h1" />
<path stroke="rgba(216,217,219,0.996078431372549)" d="M9 8h1" />
<path stroke="rgba(121,121,114,0.7372549019607844)" d="M10 8h1" />
<path stroke="rgba(176,177,174,0.8941176470588236)" d="M11 8h1" />
<path stroke="#e2ebec" d="M13 8h1" />
<path stroke="#980000" d="M14 8h1" />
<path stroke="rgba(160,0,0,0.9333333333333333)" d="M15 8h1" />
<path stroke="rgba(0,0,255,0.23921568627450981)" d="M1 9h1" />
<path stroke="rgba(0,0,255,0.6431372549019608)" d="M2 9h1" />
<path stroke="rgba(181,181,181,0.9411764705882353)" d="M6 9h1" />
<path stroke="#e3e3e4" d="M7 9h1" />
<path stroke="rgba(219,219,229,0.996078431372549)" d="M8 9h1" />
<path stroke="#d2d2df" d="M9 9h1" />
<path stroke="#9696a0" d="M10 9h1" />
<path stroke="#d7d7db" d="M11 9h1" />
<path stroke="rgba(220,218,232,0.9803921568627451)" d="M12 9h1" />
<path stroke="rgba(182,193,201,0.9803921568627451)" d="M13 9h1" />
<path stroke="#b74b42" d="M14 9h1" />
<path stroke="#b33632" d="M15 9h1" />
<path stroke="rgba(2,2,250,0.4)" d="M0 10h1" />
<path stroke="#0101ff" d="M1 10h2" />
<path stroke="rgba(1,1,254,0.8196078431372549)" d="M3 10h1" />
<path stroke="rgba(136,136,255,0.058823529411764705)" d="M4 10h1" />
<path stroke="rgba(0,0,0,0.06274509803921569)" d="M5 10h1" />
<path stroke="rgba(174,174,174,0.9490196078431372)" d="M6 10h1" />
<path stroke="#dedede" d="M7 10h1" />
<path stroke="rgba(213,213,224,0.996078431372549)" d="M8 10h1" />
<path stroke="#d1d1dc" d="M9 10h1" />
<path stroke="rgba(152,152,159,0.9882352941176471)" d="M10 10h1" />
<path stroke="rgba(178,179,190,0.996078431372549)" d="M11 10h1" />
<path stroke="#e6e6ef" d="M12 10h1" />
<path stroke="#bfbec1" d="M13 10h1" />
<path stroke="#b3bbc1" d="M14 10h1" />
<path stroke="rgba(177,185,192,0.996078431372549)" d="M15 10h1" />
<path stroke="rgba(0,0,253,0.47058823529411764)" d="M0 11h1" />
<path stroke="rgba(0,0,255,0.7647058823529411)" d="M1 11h1" />
<path stroke="rgba(0,0,230,0.984313725490196)" d="M2 11h1" />
<path stroke="rgba(0,0,240,0.6078431372549019)" d="M3 11h1" />
<path stroke="rgba(76,76,255,0.21176470588235294)" d="M4 11h1" />
<path stroke="rgba(173,173,175,0.9529411764705882)" d="M6 11h1" />
<path stroke="#dfdfdf" d="M7 11h1" />
<path stroke="rgba(252,252,253,0.996078431372549)" d="M8 11h1" />
<path stroke="#e1e1e8" d="M9 11h1" />
<path stroke="#898995" d="M10 11h1" />
<path stroke="#b4b5c0" d="M11 11h1" />
<path stroke="#d2d1de" d="M12 11h1" />
<path stroke="#b2b4c6" d="M13 11h1" />
<path stroke="#b7b334" d="M14 11h1" />
<path stroke="#b1ad1c" d="M15 11h1" />
<path stroke="rgba(0,0,255,0.5137254901960784)" d="M1 12h1" />
<path stroke="#0000c3" d="M2 12h1" />
<path stroke="rgba(175,175,170,0.9450980392156862)" d="M6 12h1" />
<path stroke="#e4e4e5" d="M7 12h1" />
<path stroke="rgba(218,218,230,0.996078431372549)" d="M8 12h1" />
<path stroke="#e5e5ec" d="M9 12h1" />
<path stroke="#a5a6a7" d="M10 12h1" />
<path stroke="#ccccd1" d="M11 12h1" />
<path stroke="#e2dfe6" d="M13 12h1" />
<path stroke="#99ae4f" d="M14 12h1" />
<path stroke="rgba(155,175,83,0.9921568627450981)" d="M15 12h1" />
<path stroke="rgba(0,0,255,0.27058823529411763)" d="M1 13h1" />
<path stroke="#0000e9" d="M2 13h1" />
<path stroke="rgba(0,0,63,0.34901960784313724)" d="M3 13h1" />
<path stroke="rgba(177,177,188,0.9411764705882353)" d="M6 13h1" />
<path stroke="#bfbfbe" d="M7 13h1" />
<path stroke="rgba(194,194,198,0.996078431372549)" d="M8 13h1" />
<path stroke="#bfbfca" d="M9 13h1" />
<path stroke="#90909c" d="M10 13h1" />
<path stroke="#e1e1df" d="M11 13h1" />
<path stroke="#dee1e2" d="M12 13h1" />
<path stroke="#bbaba9" d="M13 13h1" />
<path stroke="rgba(0,176,186,0.9921568627450981)" d="M14 13h1" />
<path stroke="#00bdc6" d="M15 13h1" />
<path stroke="rgba(0,0,255,0.01568627450980392)" d="M0 14h1" />
<path stroke="rgba(0,0,255,0.30980392156862746)" d="M2 14h1" />
<path stroke="rgba(0,0,223,0.9490196078431372)" d="M3 14h1" />
<path stroke="rgba(53,53,244,0.45098039215686275)" d="M4 14h1" />
<path stroke="rgba(0,0,240,0.47058823529411764)" d="M5 14h1" />
<path stroke="rgba(188,188,222,0.9725490196078431)" d="M6 14h1" />
<path stroke="#d1d1cc" d="M7 14h1" />
<path stroke="rgba(192,192,193,0.996078431372549)" d="M8 14h1" />
<path stroke="#bbbbb9" d="M9 14h1" />
<path stroke="#8c8c8a" d="M10 14h1" />
<path stroke="#9a9a9a" d="M11 14h1" />
<path stroke="#bdbdbd" d="M12 14h1" />
<path stroke="rgba(197,196,196,0.9921568627450981)" d="M13 14h1" />
<path stroke="#b0b7b6" d="M14 14h1" />
<path stroke="rgba(23,68,57,0.7490196078431373)" d="M15 14h1" />
<path stroke="rgba(0,0,255,0.011764705882352941)" d="M1 15h1" />
<path stroke="rgba(0,0,255,0.047058823529411764)" d="M3 15h1" />
<path stroke="rgba(64,64,255,0.12549019607843137)" d="M4 15h1" />
<path stroke="rgba(0,0,190,0.1843137254901961)" d="M5 15h1" />
<path stroke="rgba(110,110,102,0.9529411764705882)" d="M6 15h1" />
<path stroke="rgba(168,169,169,0.996078431372549)" d="M8 15h1" />
<path stroke="#8e8e8f" d="M9 15h1" />
<path stroke="#0d0d12" d="M10 15h1" />
<path stroke="#636363" d="M11 15h1" />
<path stroke="#a5a6a6" d="M12 15h1" />
<path stroke="rgba(167,168,168,0.9803921568627451)" d="M13 15h1" />
<path stroke="#a29f9f" d="M14 15h1" />
<path stroke="rgba(39,2,2,0.4588235294117647)" d="M15 15h1" />
</svg>