<svg xmlns="http://www.w3.org/2000/svg" viewBox="0 -0.5 16 16" shape-rendering="crispEdges">
<metadata>Made with Pixels to Svg https://codepen.io/shshaw/pen/XbxvNj</metadata>
<path stroke="#818181" d="M4 0h10M4 1h1M13 1h2M4 2h1M13 2h1M15 2h1M4 3h1M4 4h1M8 4h3M7 5h1" />
<path stroke="#ffffff" d="M5 1h8M5 2h8M14 2h1M5 3h8M5 4h3M11 4h3M12 5h2M13 6h1M13 7h1M6 8h1M13 8h1M6 9h1M12 9h2M5 10h2M11 10h3M4 11h3M10 11h4M4 12h3M10 12h4" />
<path stroke="#000000" d="M13 3h3M15 4h1M15 5h1M10 6h1M12 6h1M15 6h1M3 7h4M9 7h1M12 7h1M15 7h1M3 8h1M9 8h1M12 8h1M15 8h1M3 9h1M10 9h2M15 9h1M3 10h1M10 10h1M15 10h1M3 11h1M9 11h1M15 11h1M3 12h1M9 12h1M15 12h1M10 13h1M15 13h1M2 14h2M7 14h2M10 14h6M0 15h2M4 15h3M9 15h2" />
<path stroke="#c1c1c1" d="M14 4h1M8 5h1M14 5h1M1 6h1M5 6h1M9 6h1M14 6h1M14 7h1M2 8h1M8 8h1M14 8h1M1 9h1M9 9h1M14 9h1M2 10h1M8 10h1M14 10h1M14 11h1M2 12h1M8 12h1M14 12h1M1 13h1M9 13h1M11 13h4M5 14h1" />
<path stroke="#818100" d="M0 5h2M4 5h3M9 5h2M0 6h1M2 6h2M7 6h2M1 7h1M7 7h1M1 8h1M7 8h1M0 9h1M7 9h1M0 10h1M7 10h1M1 11h1M7 11h1M1 12h1M7 12h1M0 13h1M3 13h5M0 14h1" />
<path stroke="#000081" d="M11 5h1" />
<path stroke="#ffff00" d="M4 6h1M6 6h1M2 7h1M8 7h1M2 9h1M8 9h1M1 10h1M9 10h1M2 11h1M8 11h1M2 13h1M8 13h1M1 14h1M4 14h1M6 14h1M9 14h1" />
<path stroke="#008100" d="M11 6h1M10 7h1M11 8h1" />
<path stroke="#00ff00" d="M11 7h1" />
<path stroke="#0000ff" d="M4 8h2M10 8h1M4 9h2M4 10h1" />
</svg>