<svg xmlns="http://www.w3.org/2000/svg" viewBox="0 -0.5 16 16" shape-rendering="crispEdges">
<metadata>Made with Pixels to Svg https://codepen.io/shshaw/pen/XbxvNj</metadata>
<path stroke="#c1c1c1" d="M0 0h8M0 1h1M0 2h1M0 3h1M0 4h1M0 5h1M2 5h7M0 6h1M3 6h1M0 7h1M3 7h1M0 8h1M3 8h1M0 9h1M3 9h1M0 10h1M3 10h1M0 11h1M2 11h1M5 11h1M8 11h1M0 12h1M0 13h1M0 14h1" />
<path stroke="#818181" d="M8 0h1M8 1h2M8 2h1M10 2h1M8 6h1M7 7h1" />
<path stroke="#ffffff" d="M1 1h7M1 2h7M9 2h1M1 3h10M1 4h1M3 4h2M6 4h2M1 5h1M1 6h1M6 6h1M1 7h2M6 7h1M9 7h2M1 8h1M4 8h1M9 8h2M1 9h2M4 9h3M9 9h2M1 10h1M9 10h2M1 11h1M10 11h1M1 12h10M1 13h10M1 14h10" />
<path stroke="#ff0000" d="M14 1h1M13 2h1M12 3h1M11 4h1M10 5h1" />
<path stroke="#000000" d="M15 1h1M14 2h2M13 3h2M9 4h1M12 4h2M11 5h2M10 6h2M8 7h1M11 7h1M7 8h2M11 8h1M8 9h1M11 9h1M11 10h1M3 11h2M6 11h2M9 11h1M11 11h1M11 12h1M11 13h1M11 14h1M0 15h12" />
<path stroke="#810000" d="M11 3h1M10 4h1M9 5h1" />
<path stroke="#818100" d="M2 4h1M5 4h1M8 4h1M2 6h1M7 6h1M2 8h1M7 9h1M2 10h1M4 10h5" />
<path stroke="#00ff00" d="M4 6h2M4 7h2M6 8h1" />
<path stroke="#ffff00" d="M9 6h1" />
<path stroke="#008100" d="M5 8h1" />
</svg>