<?xml version="1.0" encoding="utf-8" ?>
<svg xmlns="http://www.w3.org/2000/svg" xmlns:ev="http://www.w3.org/2001/xml-events" xmlns:xlink="http://www.w3.org/1999/xlink" baseProfile="full" height="16px" version="1.1" viewBox="0 0 16 16" width="16px">
  <defs/>
  <g id="xffffff_r255_g255_b255_a1.0">
    <path d="M 2,13 1,13 1,1 8,1 8,4 10,4 10,5 9,5 9,6 7,6 2,6 2,7 7,7 7,8 2,8 2,9 5,9 5,10 3,10 2,10 2,11 3,11 6,11 6,13 z M 2,4 2,5 5,5 5,4 z" fill="#ffffff" fill-opacity="1.0" id="xffffff_r255_g255_b255_a1.0_shape1"/>
    <path d="M 9,15 7,15 7,11 7,10 13,10 13,12 13,15 12,15 12,12 9,12 z" fill="#ffffff" fill-opacity="1.0" id="xffffff_r255_g255_b255_a1.0_shape2"/>
    <path d="M 9,2 10,2 10,3 9,3 z" fill="#ffffff" fill-opacity="1.0" id="xffffff_r255_g255_b255_a1.0_shape3"/>
  </g>
  <g id="x000000_r0_g0_b0_a1.0">
    <path d="M 14,9 14,8 15,8 15,9 16,9 16,10 15,10 15,16 9,16 6,16 6,15 11,15 11,13 12,13 12,15 14,15 14,10 5,10 5,9 z" fill="#000000" fill-opacity="1.0" id="x000000_r0_g0_b0_a1.0_shape1"/>
    <path d="M 11,3 12,3 12,5 12,6 11,6 11,5 10,5 10,4 9,4 8,4 8,3 9,3 z" fill="#000000" fill-opacity="1.0" id="x000000_r0_g0_b0_a1.0_shape2"/>
    <path d="M 0,15 0,14 3,14 6,14 6,15 5,15 z" fill="#000000" fill-opacity="1.0" id="x000000_r0_g0_b0_a1.0_shape3"/>
    <path d="M 12,6 13,6 13,7 12,7 z" fill="#000000" fill-opacity="1.0" id="x000000_r0_g0_b0_a1.0_shape4"/>
    <path d="M 13,8 13,7 14,7 14,8 z" fill="#000000" fill-opacity="1.0" id="x000000_r0_g0_b0_a1.0_shape5"/>
  </g>
  <g id="xc0c0c0_r192_g192_b192_a1.0">
    <path d="M 8,6 8,7 2,7 2,6 z" fill="#c0c0c0" fill-opacity="1.0" id="xc0c0c0_r192_g192_b192_a1.0_shape1"/>
    <path d="M 13,10 14,10 14,11 14,15 13,15 13,13 z" fill="#c0c0c0" fill-opacity="1.0" id="xc0c0c0_r192_g192_b192_a1.0_shape2"/>
    <path d="M 6,13 6,14 1,14 1,13 z" fill="#c0c0c0" fill-opacity="1.0" id="xc0c0c0_r192_g192_b192_a1.0_shape3"/>
    <path d="M 2,9 2,8 5,8 6,8 6,9 5,9 z" fill="#c0c0c0" fill-opacity="1.0" id="xc0c0c0_r192_g192_b192_a1.0_shape4"/>
    <path d="M 2,11 2,10 4,10 6,10 6,11 5,11 z" fill="#c0c0c0" fill-opacity="1.0" id="xc0c0c0_r192_g192_b192_a1.0_shape5"/>
    <path d="M 2,4 5,4 5,5 2,5 z" fill="#c0c0c0" fill-opacity="1.0" id="xc0c0c0_r192_g192_b192_a1.0_shape6"/>
    <path d="M 8,3 8,1 9,1 9,3 z" fill="#c0c0c0" fill-opacity="1.0" id="xc0c0c0_r192_g192_b192_a1.0_shape7"/>
    <path d="M 10,5 11,5 11,6 10,6 z" fill="#c0c0c0" fill-opacity="1.0" id="xc0c0c0_r192_g192_b192_a1.0_shape8"/>
    <path d="M 9,7 9,6 10,6 10,7 z" fill="#c0c0c0" fill-opacity="1.0" id="xc0c0c0_r192_g192_b192_a1.0_shape9"/>
    <path d="M 8,8 8,7 9,7 9,8 z" fill="#c0c0c0" fill-opacity="1.0" id="xc0c0c0_r192_g192_b192_a1.0_shape10"/>
    <path d="M 8,9 7,9 7,8 8,8 z" fill="#c0c0c0" fill-opacity="1.0" id="xc0c0c0_r192_g192_b192_a1.0_shape11"/>
  </g>
  <g id="x808080_r128_g128_b128_a1.0">
    <path d="M 1,14 0,14 0,0 9,0 9,1 1,1 z" fill="#808080" fill-opacity="1.0" id="x808080_r128_g128_b128_a1.0_shape1"/>
    <path d="M 7,15 6,15 6,10 7,10 z" fill="#808080" fill-opacity="1.0" id="x808080_r128_g128_b128_a1.0_shape2"/>
    <path d="M 9,2 9,1 10,1 10,2 z" fill="#808080" fill-opacity="1.0" id="x808080_r128_g128_b128_a1.0_shape3"/>
    <path d="M 11,2 11,3 10,3 10,2 z" fill="#808080" fill-opacity="1.0" id="x808080_r128_g128_b128_a1.0_shape4"/>
  </g>
  <g id="x808000_r128_g128_b0_a1.0">
    <path d="M 9,13 9,12 10,12 11,12 12,12 12,13 11,13 10,13 10,14 10,15 9,15 9,14 z" fill="#808000" fill-opacity="1.0" id="x808000_r128_g128_b0_a1.0_shape1"/>
    <path d="M 9,5 10,5 10,6 9,6 z" fill="#808000" fill-opacity="1.0" id="x808000_r128_g128_b0_a1.0_shape2"/>
    <path d="M 8,6 9,6 9,7 8,7 z" fill="#808000" fill-opacity="1.0" id="x808000_r128_g128_b0_a1.0_shape3"/>
    <path d="M 12,6 12,7 11,7 11,6 z" fill="#808000" fill-opacity="1.0" id="x808000_r128_g128_b0_a1.0_shape4"/>
    <path d="M 8,7 8,8 7,8 7,7 z" fill="#808000" fill-opacity="1.0" id="x808000_r128_g128_b0_a1.0_shape5"/>
    <path d="M 11,7 11,8 10,8 10,7 z" fill="#808000" fill-opacity="1.0" id="x808000_r128_g128_b0_a1.0_shape6"/>
    <path d="M 13,7 13,8 12,8 12,7 z" fill="#808000" fill-opacity="1.0" id="x808000_r128_g128_b0_a1.0_shape7"/>
    <path d="M 7,8 7,9 6,9 6,8 z" fill="#808000" fill-opacity="1.0" id="x808000_r128_g128_b0_a1.0_shape8"/>
    <path d="M 10,9 9,9 9,8 10,8 z" fill="#808000" fill-opacity="1.0" id="x808000_r128_g128_b0_a1.0_shape9"/>
    <path d="M 11,8 12,8 12,9 11,9 z" fill="#808000" fill-opacity="1.0" id="x808000_r128_g128_b0_a1.0_shape10"/>
    <path d="M 13,8 14,8 14,9 13,9 z" fill="#808000" fill-opacity="1.0" id="x808000_r128_g128_b0_a1.0_shape11"/>
  </g>
  <g id="xffff00_r255_g255_b0_a1.0">
    <path d="M 10,15 10,13 11,13 11,15 z" fill="#ffff00" fill-opacity="1.0" id="xffff00_r255_g255_b0_a1.0_shape1"/>
    <path d="M 10,7 10,6 11,6 11,7 z" fill="#ffff00" fill-opacity="1.0" id="xffff00_r255_g255_b0_a1.0_shape2"/>
    <path d="M 9,8 9,7 10,7 10,8 z" fill="#ffff00" fill-opacity="1.0" id="xffff00_r255_g255_b0_a1.0_shape3"/>
    <path d="M 12,8 11,8 11,7 12,7 z" fill="#ffff00" fill-opacity="1.0" id="xffff00_r255_g255_b0_a1.0_shape4"/>
    <path d="M 8,8 9,8 9,9 8,9 z" fill="#ffff00" fill-opacity="1.0" id="xffff00_r255_g255_b0_a1.0_shape5"/>
    <path d="M 11,9 10,9 10,8 11,8 z" fill="#ffff00" fill-opacity="1.0" id="xffff00_r255_g255_b0_a1.0_shape6"/>
    <path d="M 12,9 12,8 13,8 13,9 z" fill="#ffff00" fill-opacity="1.0" id="xffff00_r255_g255_b0_a1.0_shape7"/>
  </g>
  <g id="x800000_r128_g0_b0_a1.0">
    <path d="M 13,4 14,4 14,7 13,7 z" fill="#800000" fill-opacity="1.0" id="x800000_r128_g0_b0_a1.0_shape1"/>
  </g>
  <g id="xff0000_r255_g0_b0_a1.0">
    <path d="M 13,4 13,6 12,6 12,4 z" fill="#ff0000" fill-opacity="1.0" id="xff0000_r255_g0_b0_a1.0_shape1"/>
  </g>
</svg>
